<mxfile host="app.diagrams.net" modified="2024-06-29T18:47:21.335Z" agent="Mozilla/5.0 (X11; Linux x86_64) AppleWebKit/537.36 (KHTML, like Gecko) Chrome/125.0.0.0 Safari/537.36" etag="Qv7tlwKc6kwpV8eXFLlV" version="24.6.4" type="device">
  <diagram name="Page-1" id="ltkKClnf7Rxp-CZkelTU">
    <mxGraphModel dx="1434" dy="809" grid="1" gridSize="10" guides="1" tooltips="1" connect="1" arrows="1" fold="1" page="1" pageScale="1" pageWidth="850" pageHeight="1100" math="0" shadow="0">
      <root>
        <mxCell id="0" />
        <mxCell id="1" parent="0" />
        <mxCell id="LJZP8v-HVktQbMUu0NrP-1" value="" style="edgeStyle=orthogonalEdgeStyle;rounded=0;orthogonalLoop=1;jettySize=auto;html=1;" edge="1" parent="1" source="LJZP8v-HVktQbMUu0NrP-2" target="LJZP8v-HVktQbMUu0NrP-5">
          <mxGeometry relative="1" as="geometry" />
        </mxCell>
        <mxCell id="LJZP8v-HVktQbMUu0NrP-2" value="Agent (Ag)" style="shape=hexagon;perimeter=hexagonPerimeter2;whiteSpace=wrap;html=1;fixedSize=1;" vertex="1" parent="1">
          <mxGeometry x="370" y="70" width="120" height="50" as="geometry" />
        </mxCell>
        <mxCell id="LJZP8v-HVktQbMUu0NrP-3" value="" style="edgeStyle=orthogonalEdgeStyle;rounded=0;orthogonalLoop=1;jettySize=auto;html=1;" edge="1" parent="1" source="LJZP8v-HVktQbMUu0NrP-4" target="LJZP8v-HVktQbMUu0NrP-2">
          <mxGeometry relative="1" as="geometry" />
        </mxCell>
        <mxCell id="LJZP8v-HVktQbMUu0NrP-4" value="Object (obj1)" style="rounded=0;whiteSpace=wrap;html=1;" vertex="1" parent="1">
          <mxGeometry x="180" y="75" width="120" height="40" as="geometry" />
        </mxCell>
        <mxCell id="LJZP8v-HVktQbMUu0NrP-5" value="Object (obj2)" style="rounded=0;whiteSpace=wrap;html=1;" vertex="1" parent="1">
          <mxGeometry x="560" y="75" width="120" height="40" as="geometry" />
        </mxCell>
        <mxCell id="LJZP8v-HVktQbMUu0NrP-6" value="State variable" style="text;html=1;align=center;verticalAlign=middle;resizable=0;points=[];autosize=1;strokeColor=none;fillColor=none;" vertex="1" parent="1">
          <mxGeometry x="440" y="120" width="100" height="30" as="geometry" />
        </mxCell>
        <mxCell id="LJZP8v-HVktQbMUu0NrP-7" value="Obj1.attribute1" style="text;html=1;align=center;verticalAlign=middle;resizable=0;points=[];autosize=1;strokeColor=none;fillColor=none;" vertex="1" parent="1">
          <mxGeometry x="300" y="45" width="100" height="30" as="geometry" />
        </mxCell>
        <mxCell id="LJZP8v-HVktQbMUu0NrP-8" value="&lt;font style=&quot;font-size: 8px;&quot;&gt;as a property of a class (or instance of that)&lt;/font&gt;" style="text;html=1;align=center;verticalAlign=middle;resizable=0;points=[];autosize=1;strokeColor=none;fillColor=none;fontColor=#6666FF;" vertex="1" parent="1">
          <mxGeometry x="350" y="30" width="180" height="30" as="geometry" />
        </mxCell>
        <mxCell id="LJZP8v-HVktQbMUu0NrP-9" style="edgeStyle=orthogonalEdgeStyle;rounded=0;orthogonalLoop=1;jettySize=auto;html=1;dashed=1;endArrow=none;endFill=0;entryX=0.253;entryY=1.022;entryDx=0;entryDy=0;entryPerimeter=0;" edge="1" parent="1" source="LJZP8v-HVktQbMUu0NrP-10" target="LJZP8v-HVktQbMUu0NrP-7">
          <mxGeometry relative="1" as="geometry" />
        </mxCell>
        <mxCell id="LJZP8v-HVktQbMUu0NrP-10" value="Value monitoring" style="text;html=1;align=center;verticalAlign=middle;resizable=0;points=[];autosize=1;strokeColor=none;fillColor=none;" vertex="1" parent="1">
          <mxGeometry x="280" y="130" width="110" height="30" as="geometry" />
        </mxCell>
        <mxCell id="LJZP8v-HVktQbMUu0NrP-11" value="Obj2.attribute2" style="text;html=1;align=center;verticalAlign=middle;resizable=0;points=[];autosize=1;strokeColor=none;fillColor=none;" vertex="1" parent="1">
          <mxGeometry x="468" y="60" width="100" height="30" as="geometry" />
        </mxCell>
        <mxCell id="LJZP8v-HVktQbMUu0NrP-12" style="edgeStyle=orthogonalEdgeStyle;rounded=0;orthogonalLoop=1;jettySize=auto;html=1;dashed=1;endArrow=none;endFill=0;" edge="1" parent="1" source="LJZP8v-HVktQbMUu0NrP-13" target="LJZP8v-HVktQbMUu0NrP-11">
          <mxGeometry relative="1" as="geometry">
            <Array as="points">
              <mxPoint x="598" y="30" />
              <mxPoint x="548" y="30" />
              <mxPoint x="548" y="55" />
              <mxPoint x="518" y="55" />
            </Array>
          </mxGeometry>
        </mxCell>
        <mxCell id="LJZP8v-HVktQbMUu0NrP-13" value="Control" style="text;html=1;align=center;verticalAlign=middle;resizable=0;points=[];autosize=1;strokeColor=none;fillColor=none;" vertex="1" parent="1">
          <mxGeometry x="568" y="40" width="60" height="30" as="geometry" />
        </mxCell>
      </root>
    </mxGraphModel>
  </diagram>
</mxfile>
